<svg width="496" height="237" viewBox="0 0 496 237" fill="none" xmlns="http://www.w3.org/2000/svg">
<path d="M28.9 189V70H85.17C98.3167 70 109.877 72.4367 119.85 77.31C129.823 82.1833 137.587 89.04 143.14 97.88C148.807 106.72 151.64 117.26 151.64 129.5C151.64 141.627 148.807 152.167 143.14 161.12C137.587 169.96 129.823 176.817 119.85 181.69C109.877 186.563 98.3167 189 85.17 189H28.9ZM62.56 162.14H83.81C90.61 162.14 96.5033 160.893 101.49 158.4C106.59 155.793 110.557 152.053 113.39 147.18C116.223 142.193 117.64 136.3 117.64 129.5C117.64 122.587 116.223 116.693 113.39 111.82C110.557 106.947 106.59 103.263 101.49 100.77C96.5033 98.1633 90.61 96.86 83.81 96.86H62.56V162.14ZM224.089 189V171.83L221.879 167.58V135.96C221.879 130.86 220.293 126.95 217.119 124.23C214.059 121.397 209.129 119.98 202.329 119.98C197.909 119.98 193.433 120.717 188.899 122.19C184.366 123.55 180.513 125.477 177.339 127.97L166.459 106.04C171.673 102.64 177.906 100.033 185.159 98.22C192.526 96.2933 199.836 95.33 207.089 95.33C222.049 95.33 233.609 98.7867 241.769 105.7C250.043 112.5 254.179 123.21 254.179 137.83V189H224.089ZM196.889 190.53C189.523 190.53 183.289 189.283 178.189 186.79C173.089 184.297 169.179 180.897 166.459 176.59C163.853 172.283 162.549 167.467 162.549 162.14C162.549 156.473 163.966 151.6 166.799 147.52C169.746 143.327 174.223 140.153 180.229 138C186.236 135.733 193.999 134.6 203.519 134.6H225.279V151.43H207.939C202.726 151.43 199.043 152.28 196.889 153.98C194.849 155.68 193.829 157.947 193.829 160.78C193.829 163.613 194.906 165.88 197.059 167.58C199.213 169.28 202.159 170.13 205.899 170.13C209.413 170.13 212.586 169.28 215.419 167.58C218.366 165.767 220.519 163.047 221.879 159.42L226.299 171.32C224.599 177.667 221.256 182.483 216.269 185.77C211.396 188.943 204.936 190.53 196.889 190.53ZM308.057 190.53C300.237 190.53 292.587 189.623 285.107 187.81C277.741 185.997 271.791 183.73 267.257 181.01L276.947 158.91C281.254 161.517 286.297 163.613 292.077 165.2C297.857 166.673 303.524 167.41 309.077 167.41C314.517 167.41 318.257 166.843 320.297 165.71C322.451 164.577 323.527 163.047 323.527 161.12C323.527 159.307 322.507 158.003 320.467 157.21C318.541 156.303 315.934 155.623 312.647 155.17C309.474 154.717 305.961 154.207 302.107 153.64C298.254 153.073 294.344 152.337 290.377 151.43C286.524 150.41 282.954 148.937 279.667 147.01C276.494 144.97 273.944 142.25 272.017 138.85C270.091 135.45 269.127 131.143 269.127 125.93C269.127 120.037 270.827 114.823 274.227 110.29C277.741 105.643 282.841 102.017 289.527 99.41C296.214 96.69 304.374 95.33 314.007 95.33C320.467 95.33 326.984 96.01 333.557 97.37C340.244 98.6167 345.854 100.543 350.387 103.15L340.697 125.08C336.164 122.473 331.631 120.717 327.097 119.81C322.564 118.79 318.257 118.28 314.177 118.28C308.737 118.28 304.884 118.903 302.617 120.15C300.464 121.397 299.387 122.927 299.387 124.74C299.387 126.553 300.351 127.97 302.277 128.99C304.204 129.897 306.754 130.633 309.927 131.2C313.214 131.653 316.784 132.163 320.637 132.73C324.491 133.183 328.344 133.92 332.197 134.94C336.164 135.96 339.734 137.49 342.907 139.53C346.194 141.457 348.801 144.12 350.727 147.52C352.654 150.807 353.617 155.057 353.617 160.27C353.617 165.937 351.861 171.037 348.347 175.57C344.947 180.103 339.847 183.73 333.047 186.45C326.361 189.17 318.031 190.53 308.057 190.53ZM427.546 95.33C434.686 95.33 441.146 96.8033 446.926 99.75C452.706 102.583 457.239 107.003 460.526 113.01C463.926 119.017 465.626 126.78 465.626 136.3V189H433.326V141.57C433.326 134.997 431.966 130.237 429.246 127.29C426.639 124.23 422.956 122.7 418.196 122.7C414.796 122.7 411.679 123.493 408.846 125.08C406.013 126.553 403.803 128.877 402.216 132.05C400.629 135.223 399.836 139.36 399.836 144.46V189H367.536V62.86H399.836V123.04L392.356 115.39C395.869 108.703 400.686 103.717 406.806 100.43C412.926 97.03 419.839 95.33 427.546 95.33Z" fill="#1E1E1E"/>
<line x1="28.9884" y1="24" x2="188.988" y2="24" stroke="#FF6A6A" stroke-width="20"/>
</svg>
