<svg width="400" height="400" viewBox="0 0 400 400" fill="none" xmlns="http://www.w3.org/2000/svg">
<path d="M350.652 116.44C347.777 111.46 343.662 107.31 338.705 104.395C333.749 101.479 328.122 99.8981 322.373 99.8056H109.454L99.806 62.212C98.8312 58.583 96.6564 55.391 93.6359 53.1558C90.6154 50.9206 86.9271 49.7739 83.1717 49.9026H49.903C45.4913 49.9026 41.2603 51.6551 38.1408 54.7747C35.0212 57.8942 33.2687 62.1252 33.2687 66.5369C33.2687 70.9486 35.0212 75.1796 38.1408 78.2991C41.2603 81.4187 45.4913 83.1712 49.903 83.1712H70.5296L116.44 253.839C117.415 257.468 119.59 260.66 122.61 262.896C125.631 265.131 129.319 266.277 133.075 266.149H282.784C285.855 266.139 288.865 265.28 291.478 263.665C294.091 262.05 296.206 259.743 297.588 257L352.149 147.879C354.514 142.922 355.614 137.457 355.353 131.971C355.092 126.485 353.477 121.15 350.652 116.44Z" fill="#231F20"/>
<path d="M124.758 349.321C138.538 349.321 149.709 338.15 149.709 324.369C149.709 310.589 138.538 299.418 124.758 299.418C110.977 299.418 99.806 310.589 99.806 324.369C99.806 338.15 110.977 349.321 124.758 349.321Z" fill="#231F20"/>
<path d="M291.101 349.321C304.881 349.321 316.052 338.15 316.052 324.369C316.052 310.589 304.881 299.418 291.101 299.418C277.32 299.418 266.149 310.589 266.149 324.369C266.149 338.15 277.32 349.321 291.101 349.321Z" fill="#231F20"/>
</svg>
